<svg width="186" height="81" viewBox="0 0 186 81" fill="none" xmlns="http://www.w3.org/2000/svg">
<path d="M8.72201 0H0V26.1888H8.72201V0Z" fill="#005433"/>
<path d="M51.7938 0L30.382 23.3152L8.79292 46.6071L8.71879 46.6836V62.981H0V44.688L12.519 31.1845L17.2152 26.1889L41.8534 0H51.7938Z" fill="#005433"/>
<path d="M53.4505 62.9809H43.2491L29.6761 46.6835L24.1548 40.0515H35.0944L40.403 46.6835L53.4505 62.9809Z" fill="#005433"/>
<path d="M88.3288 19.6135C84.8993 16.4338 80.0161 14.844 73.6793 14.844C70.0177 14.844 66.5141 15.3695 63.1716 16.4172C59.8259 17.4682 56.9637 18.9849 54.5818 20.9638L58.0725 27.4429C59.8743 25.883 62.0822 24.639 64.6994 23.7078C67.3134 22.7798 69.9887 22.3142 72.722 22.3142C76.8477 22.3142 79.9452 23.3186 82.0081 25.3275C84.0709 27.3364 85.1024 30.1735 85.1024 33.8287V35.5383H71.8485C67.2554 35.5383 63.61 36.1669 60.9057 37.4275C58.2014 38.6847 56.2546 40.3643 55.062 42.4663C53.8694 44.565 53.2764 46.9065 53.2764 49.4842C53.2764 52.0618 53.9726 54.5996 55.3682 56.7282C56.7639 58.8568 58.7558 60.5232 61.3408 61.7238C63.9259 62.9245 66.9363 63.5232 70.3658 63.5232C74.6076 63.5232 78.1241 62.7017 80.9154 61.0487C82.8687 59.8945 84.4094 58.4511 85.5375 56.7249V62.9844H93.473V34.1913C93.473 27.6557 91.7583 22.7964 88.3288 19.6168V19.6135ZM80 54.7027C77.6471 56.1428 74.9009 56.8646 71.7615 56.8646C68.6221 56.8646 66.0628 56.1595 64.2611 54.7492C62.4593 53.339 61.5568 51.4665 61.5568 49.1283C61.5568 47.0895 62.282 45.35 63.7389 43.9098C65.1926 42.4697 68.0129 41.7513 72.1966 41.7513H85.0991V48.4066C84.0548 51.1671 82.353 53.2658 79.9968 54.706L80 54.7027Z" fill="#005433"/>
<path d="M145.528 15.2964L123.12 67.7539C121.783 71.1132 120.287 73.7507 118.627 75.6698C116.97 77.5889 115.152 78.9559 113.18 79.7641C111.204 80.5723 109.022 80.9781 106.64 80.9781C104.429 80.9781 102.282 80.6022 100.187 79.8539C98.0952 79.1022 96.2934 78.008 94.7817 76.5678L98.3563 70.0888C99.5199 71.2263 100.796 72.0977 102.192 72.6964C103.588 73.295 105.07 73.5977 106.64 73.5977C108.674 73.5977 110.36 73.0589 111.697 71.9779C113.032 70.9003 114.282 68.9779 115.446 66.2207L116.916 62.8614L96.5223 15.2931H105.244L121.36 53.4056L137.331 15.2931H145.528V15.2964Z" fill="#005433"/>
<path d="M179.884 19.6135C176.455 16.4338 171.572 14.844 165.235 14.844C161.573 14.844 158.07 15.3695 154.727 16.4172C151.385 17.4682 148.519 18.9849 146.137 20.9638L149.628 27.4429C151.43 25.883 153.638 24.639 156.255 23.7078C158.872 22.7798 161.544 22.3142 164.277 22.3142C168.403 22.3142 171.501 23.3186 173.563 25.3275C175.626 27.3364 176.658 30.1735 176.658 33.8287V35.5383H163.404C158.811 35.5383 155.165 36.1669 152.461 37.4275C149.757 38.6847 147.81 40.3643 146.617 42.4663C145.425 44.565 144.832 46.9065 144.832 49.4842C144.832 52.0618 145.528 54.5996 146.924 56.7282C148.319 58.8568 150.311 60.5232 152.896 61.7238C155.481 62.9245 158.492 63.5232 161.921 63.5232C166.163 63.5232 169.68 62.7017 172.471 61.0487C174.424 59.8945 175.965 58.4511 177.093 56.7249V62.9844H185.028V34.1913C185.028 27.6557 183.314 22.7964 179.884 19.6168V19.6135ZM171.555 54.7027C169.202 56.1428 166.456 56.8646 163.317 56.8646C160.178 56.8646 157.618 56.1595 155.816 54.7492C154.015 53.339 153.112 51.4665 153.112 49.1283C153.112 47.0895 153.837 45.35 155.294 43.9098C156.748 42.4697 159.568 41.7513 163.752 41.7513H176.655V48.4066C175.61 51.1671 173.908 53.2658 171.552 54.706L171.555 54.7027Z" fill="#005433"/>
</svg>
